<svg class="construction-squid" aria-hidden="true" xmlns="http://www.w3.org/2000/svg" fill="none" viewBox="0 0 141 226">
    <path fill="#046" fill-rule="evenodd" d="M71.53 0A4.72 4.72 0 0 1 76 3.2c4.24.33 8.44 1.07 12.51 2.2a4.71 4.71 0 0 1 8.74 2.46v.67a59.24 59.24 0 0 1 14.7 9.25 52.2 52.2 0 0 1 13.06 16.88A46.94 46.94 0 0 1 129.7 55h1.3a5 5 0 0 1 0 10h-12.22a53.38 53.38 0 0 1-6.61 54.54 39.37 39.37 0 0 1 7.91 8.94c5.88 8.25 9 18.16 8.9 28.3v3.23a15.71 15.71 0 0 1 11.63 16.88 16.66 16.66 0 0 1-9.1 14.87 16.5 16.5 0 0 1-22.82-8.71 16.67 16.67 0 0 1 3.02-17.18 16.54 16.54 0 0 1 7.63-4.87v-3.22a41.3 41.3 0 0 0-7.16-23.32 41.06 41.06 0 0 0-19.06-15.16 4.55 4.55 0 0 1-2.64-6.03 4.56 4.56 0 0 1 6.1-2.41 41.63 41.63 0 0 1 8.17 3.97 44.57 44.57 0 0 0 4.2-49.83H32.04a44.56 44.56 0 0 0 4.2 49.83 42.2 42.2 0 0 1 8.17-4.22 4.53 4.53 0 0 1 5.77 2.55 4.58 4.58 0 0 1-2.3 5.89A41.05 41.05 0 0 0 28.8 134.2a41.3 41.3 0 0 0-7.16 23.32v3.23a16.24 16.24 0 0 1 11.87 15.89c0 4.4-1.75 8.64-4.86 11.76a16.54 16.54 0 0 1-23.43 0 16.66 16.66 0 0 1-4.85-11.76A16.87 16.87 0 0 1 12.5 160.5v-3.23a50.46 50.46 0 0 1 8.9-28.3 52.33 52.33 0 0 1 7.67-8.94A53.31 53.31 0 0 1 22.06 65H10a5 5 0 0 1 0-10h1.93c0-7.03 1.61-13.95 4.69-20.34a52.2 52.2 0 0 1 13.05-16.88 59.25 59.25 0 0 1 14.7-9.25v-.67a4.72 4.72 0 0 1 8.74-2.46A66.01 66.01 0 0 1 67.1 3.1 4.72 4.72 0 0 1 71.53 0Zm49.02 55H21.08c0-3.07.38-6.13 1.14-9.12a38.7 38.7 0 0 1 2.64-7.26c2.5-5.2 6.17-9.93 10.78-13.91a49.26 49.26 0 0 1 8.73-6v3.47a4.72 4.72 0 1 0 9.44 0v-7.45a56.63 56.63 0 0 1 13-2.44v11.3a4.72 4.72 0 1 0 9.44 0V12.4a56.5 56.5 0 0 1 11.57 2.32v7.45a4.72 4.72 0 1 0 9.43 0v-3.47a49.23 49.23 0 0 1 8.73 6 43.06 43.06 0 0 1 10.78 13.9 38.67 38.67 0 0 1 2.64 7.27 37.18 37.18 0 0 1 1.15 9.12ZM24.37 176.15a7.72 7.72 0 0 1-4.74 7.1 7.64 7.64 0 0 1-10.45-5.6 7.72 7.72 0 0 1 3.26-7.9 7.64 7.64 0 0 1 4.26-1.3 7.51 7.51 0 0 1 7.12 4.73c.38.94.56 1.95.55 2.97Zm100.41 7.45a7.64 7.64 0 0 1-7.08-4.75 7.73 7.73 0 0 1 5.58-10.5 7.64 7.64 0 0 1 9.17 7.55 7.76 7.76 0 0 1-7.67 7.7Z" clip-rule="evenodd"/>
  <path fill="#046" d="M95.84 216v-64.68c0-6.71-2.65-13.16-7.39-17.9a25.18 25.18 0 0 0-35.67 0 25.37 25.37 0 0 0-7.39 17.9V216H0v10h54.3v-74.68c0-4.28 1.69-8.38 4.7-11.4a16.05 16.05 0 0 1 22.74 0 16.17 16.17 0 0 1 4.7 11.4V226H141v-10H95.84ZM74.71 101.56a5.47 5.47 0 0 0 1.6-3.86 4.48 4.48 0 0 1 4.45-4.47 4.44 4.44 0 0 1 4.45 4.47 14.57 14.57 0 0 1-8.99 13.56 14.59 14.59 0 0 1-15.91-3.22 14.7 14.7 0 0 1-4.29-10.34 4.97 4.97 0 0 1 4.95-4.47 4.41 4.41 0 0 1 4.45 4.47 5.47 5.47 0 0 0 5.44 5.46c1.45 0 2.83-.58 3.85-1.6ZM42.78 74.69a11.28 11.28 0 0 1 8.05-3.06A11.92 11.92 0 0 1 62.21 82.3a4.6 4.6 0 0 1-4.45 4.72 4.57 4.57 0 0 1-4.7-4.47 2.24 2.24 0 0 0-2.23-2.23 2.24 2.24 0 0 0-1.73.74 2.69 2.69 0 0 0-.74 1.74 4.46 4.46 0 0 1-4.45 4.47h-.25a4.94 4.94 0 0 1-4.45-4.72c.1-2.99 1.39-5.82 3.57-7.86ZM85.68 86.94c-.54.22-1.12.33-1.7.33a4.02 4.02 0 0 1-4.2-3.09 4.06 4.06 0 0 1-.01-1.88A11.28 11.28 0 0 1 99 74.65a11.22 11.22 0 0 1 3.26 7.65 4.6 4.6 0 0 1-4.45 4.72 4.57 4.57 0 0 1-4.7-4.47 2.24 2.24 0 0 0-2.22-2.23 2.24 2.24 0 0 0-1.73.74 2.69 2.69 0 0 0-.75 1.74 4.46 4.46 0 0 1-2.74 4.14Z"/>
</svg>