<svg class="osfc__mascot" aria-hidden="true" xmlns="http://www.w3.org/2000/svg" fill="none" viewBox="0 0 587 347">
  <path fill="#59595B" d="m587 328.7-3 15.7-73.8-6.6 5.6-29.6 71.1 20.5Z"/>
  <path fill="#333" d="m516.3 329.5-1.6 8.8 8.8 1.6 1.6-8.8-8.8-1.6ZM520 309.5l-1.6 8.9 8.9 1.6 1.6-8.9-8.9-1.6ZM531.5 334.2l-1.3 7.2 7.1 1.3 1.3-7.1-7.1-1.4ZM536.7 314.3l-1.3 7.2 7.2 1.3 1.3-7.2-7.2-1.3ZM549.6 335.6l-1.2 6.5 6.5 1.2 1.2-6.5-6.5-1.2ZM551 319.6l-1.2 6.5 6.5 1.2 1.2-6.5-6.5-1.2ZM564.2 338.3l-1.4 7.2 7.2 1.3 1.3-7.2-7.1-1.3ZM567.5 320l-1.3 7.1 7.2 1.4 1.3-7.2-7.2-1.3Z"/>
  <path fill="#E6E6E6" d="m267 277.6 4.8-25.7-47.4-4.5-7.7 41.9 45.6 12.6 4.6-24.3Z"/>
  <path fill="#CDCCCC" d="m229.5 245.5-9 49 2.4.5 9-49-2.4-.5ZM237.7 247l-9 49 2.4.5 9-49-2.4-.5ZM246 247.7l-9 49 2.4.5 9-49-2.4-.5ZM254.2 249.2l-9 49 2.4.5 9-49-2.4-.5ZM263 246.9l-10.4 56.7 2.4.4 10.5-56.7-2.5-.4ZM216.2 240.2l-10 54.3c-.2.7.3 1.4 1 1.5l6.7 1.2c.7.2 1.4-.3 1.5-1l10-54.3c.1-.7-.3-1.4-1-1.5l-6.7-1.3c-.7-.1-1.4.4-1.5 1Z"/>
  <path fill="#E6E6E6" d="m56.9 251.6 4.5-24.6a.9.9 0 0 1 1-.7l151.2 27.9-4.8 26.2-151.2-27.8a.9.9 0 0 1-.7-1Z"/>
  <path fill="#F2F2F2" d="m57.2 245-.4 2.5 151.4 27.8.5-2.4L57.2 245Z"/>
  <path fill="#DDD" d="m212 262.9.8-4.5-152-28-.9 4.5 152 28Z"/>
  <path fill="#999" d="M167 269.3a3.4 3.4 0 1 0 0-6.7 3.4 3.4 0 0 0 0 6.7ZM169.5 256.2a3.4 3.4 0 1 0 0-6.8 3.4 3.4 0 0 0 0 6.8ZM155.8 267.3a3.4 3.4 0 1 0 0-6.8 3.4 3.4 0 0 0 0 6.8ZM158.2 254.2a3.4 3.4 0 1 0 0-6.8 3.4 3.4 0 0 0 0 6.8ZM178.5 271.5a3.4 3.4 0 1 0 0-6.8 3.4 3.4 0 0 0 0 6.8ZM181 258.3a3.4 3.4 0 1 0 0-6.7 3.4 3.4 0 0 0 0 6.7ZM190 273.6a3.4 3.4 0 1 0 0-6.8 3.4 3.4 0 0 0 0 6.8ZM192.4 260.4a3.4 3.4 0 1 0 0-6.7 3.4 3.4 0 0 0 0 6.7Z"/>
  <path fill="#CDCCCC" d="M13.8 225 .4 229l11.1 8.3 46.4 8.5 2.3-12.2-46.4-8.5Z"/>
  <path fill="#B3B3B3" d="m12.7 231.2-1.2 6 46.4 8.6 1.2-6-46.4-8.6Z"/>
  <path fill="#D5D5D5" d="m210.2 253.6-4.9 26.2 3.5.6 4.8-26.2-3.4-.6Z"/>
  <path fill="#E53B39" d="m517 303.2-7.4 39.8L275 310.3l11.3-61.4L517 303.2Z"/>
  <path fill="#F96360" d="m288.5 249.5-2.1-.6-11.3 61.4L509.6 343l3.7-19.8-230.5-42.5 5.7-31.2Z"/>
  <path fill="#D44646" d="m513.3 323.2-230.5-42.5 5.7-31.2L517 303.2l-3.7 20Z"/>
  <path fill="#F96360" d="m274.8 238.9-14.1 77a4.1 4.1 0 0 0 2.9 2.2l5.7 1a4.1 4.1 0 0 0 4.8-3.3l13.2-72.1a4.1 4.1 0 0 0-3.3-4.8l-5.6-1a4 4 0 0 0-3.6 1ZM273.6 241.1l-13.3 72.1a4 4 0 0 0 .4 2.6l14.1-77a4 4 0 0 0-1.2 2.3Z"/>
  <path fill="#BB2F2F" d="m288.5 249.5-11.2 61-2.2-.2 11.3-61.4 2.1.6Z"/>
  <path fill="#7173B0" d="M260.5 116.2c.7-3 1.1-6 1.4-8.9.6-10.5.3-14.8 1-25.4 0-2 .4-4 .8-6 0 0 .3-2.3 4.9-7.4 2-2.5 4.4-4.7 7-6.4 4-2.9 8.3-5.2 12.8-7l6.6-2.8 7.5-2.6c7.5-2.4 15.3-4 23.2-4.7 0 0 5.7-.7 6.9-.7 3.2 0 5-.6 13 .2a247 247 0 0 1 36.4 6.3c3.4.9 8.8 2 9.7 3l18.2 18.4a45.6 45.6 0 0 0 16.8 12s-139.1 64.5-166.2 32Z"/>
  <path fill="#4F51A9" d="M391.7 53.7a52 52 0 0 1-5.6-6.9c-2.8-4-9.3-10.8-13.3-14.9-5-5-32-33.9-46.2-31.4-7.9 1.4-3.7 28-3.4 30 .7 5.4.9 8.9 2.5 14.5 5.2-.5 10.4-.7 15.5-.5 22 1 50.5 9.2 50.5 9.2Z"/>
  <path fill="#F96360" d="M326.6.5c-7.9 1.4-3.7 28-3.4 30 .7 5.4.9 8.8 2.5 14.5 5.2-.5 10.4-.7 15.5-.5a260 260 0 0 1 20.1 2.3.9.9 0 0 0 .6-1C351.2 14 326.6.4 326.6.4Z"/>
  <path fill="#4F51A9" d="M276.3 61.8A39 39 0 0 0 263.7 76S252.3 63.6 248 57.7c-3.3-4.6-12.2-15.3-8-19.7 2.5-2.6 19-4.1 45.9 10.9 2.1 1.1 6.4 3.8 8.8 3.6a97.8 97.8 0 0 0-18.5 9.3Z"/>
  <path fill="#F96360" d="M276.3 61.8A39 39 0 0 0 263.7 76S252.3 63.6 248 57.7c-3.3-4.6-12.2-15.3-8-19.7 2.5-2.6 14 4.4 33 14.4 2.2 1.2 10 5.5 8.2 6.4l-5 3Z"/>
  <path fill="#AEADD5" d="M442 74.6c-7.3 11.8-13 10.6-13 10.6 1.5-4.4 1.3-12 1.3-12-2.1 5-6.3 7.8-10.4 8-34.4 2-74.9-8-96.2-4.2a35.8 35.8 0 0 0-27.5 29c-.5 3.2-1.2 4.8-1.8 10.1-2-.4-4-.7-6-.7a17 17 0 0 0-4.2.6c.3-1.3 6.7-17-2.6-30.6-5.3-7.8-16.6-3.5-19.1 3l-.7 18.9c-.2 3-.3 7.4-1.4 10.2-2.6 6.7-2.7 9.2-7.3 9.7-4.1.4-10.6-4.2-10.6-4.2.4 2.6 1.5 5.1 3 7.2-2.8.3-5.2-2-8-5.3 0 0 11.9 81 114.2 65.2 9.4-2.8 18.1-5.7 26.2-9.3l19.5-11.7 4.8-4.2c5.5-5.8 38.2-34 39.7-90.3Z"/>
  <path fill="#4F51A9" d="M299.5 114.4c4.5-44.8 45-32.4 51.3-18.8 4.4 9.2 3.2 13.5 12 21.1 4 3.5 5.8 13.5-11 18.2-14.9 4.2-29.7 5.8-41.3-3.3-4.5-3.6-11.5-12.4-11-17.2ZM274.5 132c-2.2-7.2 4.4-9.4 6.3-12.6 4-7 7.6-26.3-4.8-30.4-6.7-2.2-11.1-.2-13.7 4.2l-.8 14.2c0 3-.5 6-1.4 8.9-2.2 6.8-4.8 11.3-9 10.8 0 0 4.9 4 8.6 5 3 1 15.8 3 14.8 0Z"/>
  <path fill="#221F1D" d="M293.2 93.2c-1.2-.2-2.5-.4-3.8-.4-1.3.1-2.6.3-3.8.6a62.9 62.9 0 0 0-45.7-.8v7.8l.1.3a3 3 0 0 1 2.9 3.2c0 4 1.4 10.9 1.4 10.9s2.9 15.2 13.7 17c0 0 15.6 3.8 22.8-9.9 3.7-7 5.4-16.7 6.2-18.4a3 3 0 0 1 2.5-1.8 3 3 0 0 1 2.6 1.8c1 1.7 3 11.5 7.3 19.1 8.7 15.5 28.7 13.8 28.7 13.8 16-.4 20-19.5 20-19.5s2-8.8 1.8-14c0 0-.7-3.5 4.6-4.3a.3.3 0 0 0 .3-.3l-.5-10.3a.3.3 0 0 0-.2-.3c-3-.8-31.9-7.6-60.9 5.5Zm-18.7 32a18.6 18.6 0 0 1-20 2.5c-4.6-2.3-9.7-10.6-8-27.6 0 0 .8-6.7 12.5-6.9 12.4-.2 20.3 1.4 22.5 7.2 1.3 3.3.3 18.8-7 24.7Zm58.4 6.7c-5.7 2-16.7 2.4-26.3-5.3-8.4-6.8-10-23-8.8-26.5C300 94 309 91.6 325 90.8c17.2-1 18.9 7.4 18.9 7.4 3.4 21.5-4.3 31.5-11 33.7Z"/>
  <path fill="#4F51A9" d="M317.6 191.9s-4.7 39.5 2.9 51.9l-9.5 2c-7.4 1.7-6 7.5-6 7.5l34.2 8.1-18.4-69.5h-3.2Z"/>
  <path fill="#7173B0" d="M435.2 223.9s49-44 98.8 24c0 0 13 17.9 34 10.9 0 0-73 51-126.3-14.5l-6.5-20.4Z"/>
  <path fill="#4F51A9" d="M451.1 214.4c-4.3 1.8-8.5 4-12.4 6.8l10.7 31.6c3.6 3.6 7.5 7 11.7 10 2-6.8 7.8-31.6-10-48.4ZM485.5 211.3c-5.9-1.4-12-1.7-18-1 4.2 4.8 20.3 26.4 8.8 61 4.9 2.2 10 3.7 15.1 4.8 3-7.5 14.2-39.9-5.9-64.8ZM527.3 239.3c-5.8-6.9-12.5-13-19.9-18.2a68.6 68.6 0 0 1-1.3 56.6c5.1 0 10.2-.3 15.2-1 8-7 8.8-26.4 6-37.4ZM539.2 253.2a23.6 23.6 0 0 1-3.7 20.4c11.5-3.3 22.4-8.3 32.5-14.8-13.1 4.3-23.1-1-28.8-5.6Z"/>
  <path fill="#7173B0" d="M464.6 282.6a39.8 39.8 0 0 0-6.6-15.2c-13-17.4-9.2-37-23-51.8-3.4-3.7-8.7-8.6-11-11a164.5 164.5 0 0 1-13-19l-1.7-2.6-29-44s-23.6-30.3-37.5-26.9c-9.7 2.4-10.4 14-7.2 23 6.4 18.1 15 23 12.8 47-1.1 11.8-27.6 9.7-27.6 9.7-2 35.2 6.1 56.3 17.8 68.9l12.6-46.8 2 .5-13 48c22.5 22 56.2 14.9 56.2 14.9 2.7-.9 5.6-1.4 8.2-.3 1.9.7 3.1 2.2 4.8 3.3 7.6 5.1 11.1 7.7 12.5 8.9 2.6 2.2 8.2 4.6 10.4 7.3 8.4 10 15.8 11 22.4 9 5.5-1.7 11-17.3 10-22.9Z"/>
  <path fill="#F96360" d="m351.2 214-12.6 46.7 1.6 1.7 13-48-2-.5Z"/>
  <path fill="#221F1D" d="M292 122.3v-.2a.4.4 0 0 0-.3-.5h-9.3c-.3 0-.5.3-.4.5a21.7 21.7 0 0 0 3.2 5.3.6.6 0 0 0 .5 0h.2l6-5.1Z"/>
  <path fill="#C94847" d="M295.3 136.2c-3.7-.3-7.1-1.7-9.8-4.2-4 8-10.4 1-10.4 1s7.7 10.9 15 19.4l5.2-16.2Z"/>
  <path fill="#F96360" d="M285.5 146.8s1-10.5 10.5-10.6c0 0 6.6.4 10.6-4.5 0 0-2.2 28.3-6.1 29.3-4 1-15-14.2-15-14.2Z"/>
  <path fill="#AEADD5" d="M281.2 127.8v-5.7c-2.7 0-7.2 3-7.2 6.7 0 3.6.5 5.7 7.2 5.6 4 0 0-3 0-6.6Z"/>
  <path fill="#221F1D" d="M274 117c3 0 5.5-4.2 5.5-9.4S277 98 274 98s-5.5 4.3-5.5 9.5 2.5 9.5 5.5 9.5Z"/>
  <path fill="#fff" d="M272.8 110.3c1.8 0 3.2-2.5 3.2-5.6 0-3-1.4-5.6-3.2-5.6-1.8 0-3.3 2.5-3.3 5.6 0 3.1 1.5 5.6 3.3 5.6ZM276 114.6c.8 0 1.4-1 1.4-2.4 0-1.3-.6-2.4-1.4-2.4-.8 0-1.4 1-1.4 2.4 0 1.3.6 2.4 1.4 2.4Z"/>
  <path fill="#221F1D" d="M313 119.6c4.9 0 9-5.4 9-12s-4.1-12-9-12c-5 0-9 5.4-9 12s4 12 9 12Z"/>
  <path fill="#fff" d="M309.6 112.6c2.5 0 4.6-3.4 4.6-7.5s-2.1-7.5-4.6-7.5c-2.6 0-4.7 3.4-4.7 7.5s2.1 7.5 4.7 7.5ZM315.6 116.6c1.1 0 2-1.4 2-3 0-1.7-.9-3-2-3-1 0-2 1.3-2 3 0 1.6 1 3 2 3Z"/>
  <path fill="#221F1D" d="M285.5 132c-1-1.4-.6-5-.5-5h1.2c-.9 1.5-1.1 3.2-.8 4.8v.2Z"/>
  <path fill="#fff" d="M346.5 195.9c-2.4-.8-3.9 1.6-3.4 5.2.3 1.8 1 3.6 2 5.1l-13 42.6 2.6 3.2 12.6-43.4c.4.3.9.6 1.4.7 2.4.8 3.9-1.8 3.2-5.6-.6-3.7-3-7-5.4-7.8Zm3.2 7.2c.3 1.8-.4 3-1.6 2.7-1.2-.4-2.4-2.2-2.7-4-.3-1.8.5-3 1.6-2.6 1.2.4 2.4 2 2.7 3.9Z"/>
  <path fill="#fff" d="M333.7 207.2c-8.6.4-11.8 11.7-8.9 26.7a49.4 49.4 0 0 0 9 21l2.5-8.5a34.7 34.7 0 0 1-5.3-13c-2.2-10.2-.4-17.7 4.7-18 5-.3 10 6.5 12.6 16.4 2.8 10.5 1.4 18.5-4.1 19.2-1 0-2 0-2.9-.4l-2.4 9c2.3 1.7 5 2.4 7.9 2.1 9.5-1.4 11.4-15.6 7.2-30.4-4-14.2-12-24.5-20.3-24.1Z"/>
  <path fill="#F96360" d="M336.3 246.4 334 255l2.6 3 2.4-8.7c-1-.8-1.8-1.8-2.6-2.8Z"/>
</svg>