<svg xmlns="http://www.w3.org/2000/svg" fill="none" viewBox="0 0 233 61" aria-label="u-bmc">
  <path fill="currentColor" d="M38.5 39.2c.4 4.8-1 9.5-3.8 13.4A19.8 19.8 0 0 1 19.3 60a19.1 19.1 0 0 1-16.1-8.9A19.7 19.7 0 0 1 0 39.5V24.4c-.3-1.7 0-3.5.7-5.2a5.8 5.8 0 0 1 10.3 0c.7 1.7 1 3.5.7 5.2v16.2a7.3 7.3 0 0 0 6.8 7.5h.4A6.4 6.4 0 0 0 25 44c1-2 1.3-4 1-6.2V24.4c-.2-1.7 0-3.5.7-5.2a6.4 6.4 0 0 1 5.2-3 5.7 5.7 0 0 1 5.1 3c.7 1.7 1 3.5.7 5.2l.7 14.8ZM59 31c1.7-.3 3.4 0 4.9.6a6.4 6.4 0 0 1 3 5.2 5.7 5.7 0 0 1-3 5.1 7 7 0 0 1-4.5 1H54c-2.7 0-3.7 0-5.1-1a5.8 5.8 0 0 1 0-10.3c1.6-.7 3.4-1 5.1-.7h5.2ZM86.5 14.4v6.2c3.3-3 7.6-4.5 12-4.4 11.7 0 20.3 9.6 20.3 22a21 21 0 0 1-20.6 22c-4.4 0-8.7-1.6-12-4.5a6 6 0 0 1-10.6 2 9.7 9.7 0 0 1-1-5.1V7.9c0-3 0-3.8.6-4.8a5.8 5.8 0 0 1 10.3 0c.7 1.4.7 1.7.7 4.8l.3 6.5Zm-.3 23.7a10 10 0 0 0 17 7 10 10 0 0 0-14.1-14 10 10 0 0 0-3 7ZM125 34a18.5 18.5 0 0 1 30.8-13 18.8 18.8 0 0 1 26.4 1.3c3 3.4 4.8 7.8 4.8 12.4V52c.3 1.6 0 3.3-.7 4.8a6.4 6.4 0 0 1-5.1 3 5.6 5.6 0 0 1-5.1-3c-.7-1.5-1-3.2-.7-4.8V37a11 11 0 0 0-.7-5.5 6.5 6.5 0 0 0-6.2-3.8A5.8 5.8 0 0 0 163 31c-.8 2-1.1 4.1-1 6.2V52c.1 1.7-.2 3.3-1 4.8a6.4 6.4 0 0 1-5.2 3 5.7 5.7 0 0 1-5.1-3c-.7-1.5-1-3.2-.7-4.8V37c0-1.7 0-3.4-.4-5.1a5.9 5.9 0 0 0-6.1-4.2 6.9 6.9 0 0 0-6.2 4.2c-.4 1.7-.6 3.4-.7 5.1V52c.2 1.6 0 3.3-.7 4.8a7.3 7.3 0 0 1-5.1 3 5.7 5.7 0 0 1-5.2-3c-.6-1.5-.9-3.2-.7-4.8V34ZM228.5 20.3c3.1 2.4 4.1 3.8 4.1 6.2a5.9 5.9 0 0 1-6.1 5.8c-1.4 0-2.7-.5-3.8-1.4a9.8 9.8 0 0 0-6.9-2.7 10.5 10.5 0 0 0-10.3 10 10.3 10.3 0 0 0 10 10.3c3 0 3.4-.4 7.9-3.5.9-.9 2.1-1.4 3.4-1.4a6 6 0 0 1 6.2 5.9c0 2.4-1.4 4.5-4.8 6.9a24 24 0 0 1-21.2 2.3 22 22 0 0 1 7.1-42.5h1c4.8-.1 9.5 1.3 13.4 4Z"/>
</svg>