<svg viewBox="0 0 28 32" fill="none" xmlns="http://www.w3.org/2000/svg"><path d="M11.1042 13.4238C10.1922 13.4238 9.47217 14.2238 9.47217 15.1998C9.47217 16.1758 10.2082 16.9758 11.1042 16.9758C12.0162 16.9758 12.7362 16.1758 12.7362 15.1998C12.7522 14.2238 12.0162 13.4238 11.1042 13.4238ZM16.9442 13.4238C16.0322 13.4238 15.3122 14.2238 15.3122 15.1998C15.3122 16.1758 16.0482 16.9758 16.9442 16.9758C17.8562 16.9758 18.5762 16.1758 18.5762 15.1998C18.5762 14.2238 17.8562 13.4238 16.9442 13.4238Z" fill="currentColor"/><path d="M24.72 0H3.28C1.472 0 0 1.472 0 3.296V24.928C0 26.752 1.472 28.224 3.28 28.224H21.424L20.576 25.264L22.624 27.168L24.56 28.96L28 32V3.296C28 1.472 26.528 0 24.72 0ZM18.544 20.896C18.544 20.896 17.968 20.208 17.488 19.6C19.584 19.008 20.384 17.696 20.384 17.696C19.728 18.128 19.104 18.432 18.544 18.64C17.744 18.976 16.976 19.2 16.224 19.328C14.8537 19.5803 13.4483 19.5749 12.08 19.312C11.2767 19.1548 10.4894 18.9245 9.728 18.624C9.32665 18.4697 8.9364 18.2879 8.56 18.08C8.512 18.048 8.464 18.032 8.416 18C8.384 17.984 8.368 17.968 8.352 17.952C8.064 17.792 7.904 17.68 7.904 17.68C7.904 17.68 8.672 18.96 10.704 19.568C10.224 20.176 9.632 20.896 9.632 20.896C6.096 20.784 4.752 18.464 4.752 18.464C4.752 13.312 7.056 9.136 7.056 9.136C9.36 7.408 11.552 7.456 11.552 7.456L11.712 7.648C8.832 8.48 7.504 9.744 7.504 9.744C7.504 9.744 7.856 9.552 8.448 9.28C10.16 8.528 11.52 8.32 12.08 8.272C12.176 8.256 12.256 8.24 12.352 8.24C15.1266 7.86446 17.9483 8.39179 20.4 9.744C20.4 9.744 19.136 8.544 16.416 7.712L16.64 7.456C16.64 7.456 18.832 7.408 21.136 9.136C21.136 9.136 23.44 13.312 23.44 18.464C23.44 18.464 22.08 20.784 18.544 20.896V20.896Z" fill="currentColor"/></svg>