<svg width="80" height="80" viewBox="0 0 80 80" fill="none" xmlns="http://www.w3.org/2000/svg">
<path fill-rule="evenodd" clip-rule="evenodd" d="M40.0483 3.13903C31.0158 3.12991 22.2753 6.31519 15.393 12.1241C8.51078 17.9329 3.93666 25.9857 2.49045 34.8392C1.04424 43.6927 2.82045 52.7683 7.50074 60.4395C12.181 68.1107 19.4595 73.8762 28.0318 76.7027C29.9218 77.0502 30.6218 75.8685 30.6218 74.8722C30.6218 73.876 30.6218 71.6054 30.6218 68.4543C20.0519 70.7712 17.8119 63.4033 17.8119 63.4033C17.1076 61.1197 15.6113 59.1578 13.5886 57.8657C10.1586 55.5488 13.8686 55.5488 13.8686 55.5488C15.0709 55.7174 16.2189 56.1555 17.2255 56.8299C18.2321 57.5043 19.0709 58.3973 19.6785 59.4413C20.1948 60.3708 20.8908 61.19 21.7267 61.8518C22.5626 62.5136 23.5218 63.005 24.5494 63.2977C25.577 63.5905 26.6527 63.6789 27.7147 63.5578C28.7768 63.4368 29.8043 63.1087 30.7384 62.5924C30.8848 60.6863 31.7123 58.8949 33.0717 57.5414C24.6251 56.5914 15.7586 53.3477 15.7586 38.8898C15.7006 35.1432 17.0957 31.518 19.6552 28.7647C18.513 25.5074 18.6462 21.9427 20.0285 18.7785C20.0285 18.7785 23.2251 17.7591 30.4817 22.6479C36.713 20.949 43.2902 20.949 49.5215 22.6479C56.7781 17.7591 59.9514 18.7785 59.9514 18.7785C61.3482 21.9382 61.4898 25.5055 60.3481 28.7647C62.9075 31.518 64.3027 35.1432 64.2447 38.8898C64.2447 53.394 55.3548 56.5682 46.8849 57.4255C47.7931 58.3321 48.4944 59.4219 48.9413 60.6212C49.3881 61.8205 49.5701 63.1012 49.4748 64.3764C49.4748 69.4274 49.4748 73.5052 49.4748 74.7332C49.4748 75.9612 50.1515 76.9112 52.0882 76.5637C60.6335 73.7106 67.8802 67.9359 72.536 60.2698C77.1917 52.6036 78.9536 43.5445 77.5074 34.7081C76.0612 25.8718 71.5009 17.8329 64.64 12.0253C57.7791 6.21775 49.0637 3.01913 40.0483 3V3.13903Z" fill="currentColor"/>
</svg>
