<svg width="160" height="160" viewBox="0 0 160 160" fill="none" xmlns="http://www.w3.org/2000/svg">
<path fill-rule="evenodd" clip-rule="evenodd" d="M99.3791 67.922C96.7755 68.5833 94.6317 69.1526 92.4488 69.7322C90.7084 70.1944 88.9426 70.6633 86.8996 71.1905L86.7768 71.2234C85.7784 71.4916 85.6743 71.5195 84.7454 70.4477C83.6311 69.1848 82.814 68.3677 81.2541 67.6249C76.5742 65.3221 72.043 65.9907 67.8089 68.7392C62.7576 72.0076 60.1577 76.836 60.232 82.8529C60.3063 88.7955 64.3918 93.6982 70.2602 94.5153C75.3114 95.1839 79.5455 93.4011 82.8883 89.6126C83.3841 89.0066 83.8391 88.3597 84.3442 87.6416L84.3454 87.6399C84.5209 87.3904 84.7025 87.1322 84.8939 86.8642H70.5573C68.9974 86.8642 68.626 85.8985 69.146 84.6357C70.1116 82.3329 71.8944 78.4702 72.9344 76.5389C73.1572 76.0932 73.6772 75.3503 74.7915 75.3503H98.6965C99.7701 71.9487 101.512 68.7345 103.836 65.6932C109.258 58.5621 115.795 54.8479 124.635 53.288C132.212 51.9509 139.343 52.6937 145.806 57.0764C151.674 61.0877 155.314 66.5103 156.28 73.6415C157.542 83.6697 154.645 91.8408 147.737 98.8234C142.834 103.8 136.817 106.92 129.909 108.332C128.591 108.576 127.274 108.691 125.977 108.805C125.3 108.865 124.629 108.924 123.966 109C117.207 108.852 111.041 106.92 105.841 102.463C102.185 99.3021 99.6654 95.4169 98.4135 90.894C97.5448 92.6483 96.506 94.3284 95.2935 95.9267C89.9452 102.984 82.9626 107.366 74.1229 108.555C66.8432 109.52 60.0834 108.109 54.1408 103.652C48.6439 99.4923 45.524 93.9953 44.7069 87.1613C43.7412 79.0645 46.1183 71.7848 51.0209 65.3964C56.295 58.4881 63.2776 54.1054 71.8201 52.5455C78.8027 51.2827 85.4882 52.0998 91.5051 56.1853C95.4421 58.7852 98.2648 62.3508 100.122 66.6592C100.568 67.3278 100.27 67.6992 99.3791 67.922ZM141.594 78.1955C141.609 78.445 141.624 78.7079 141.646 78.9898C141.274 85.3782 138.08 90.1323 132.212 93.1779C128.275 95.1835 124.189 95.4064 120.104 93.6236C114.755 91.2465 111.933 85.3782 113.27 79.5841C114.904 72.6015 119.361 68.2188 126.269 66.6589C133.326 65.0247 140.086 69.1845 141.423 76.5385C141.528 77.0645 141.559 77.5904 141.594 78.1955Z" fill="currentColor"/>
<path d="M15.5139 69.2592C15.2168 69.2592 15.1425 69.1106 15.2911 68.8878L16.851 66.8822C16.9996 66.6593 17.371 66.5107 17.6681 66.5107H44.1871C44.4843 66.5107 44.5585 66.7336 44.41 66.9564L43.1472 68.8878C42.9986 69.1106 42.6272 69.3335 42.4043 69.3335L15.5139 69.2592Z" fill="currentColor"/>
<path d="M4.29713 76.0932C4 76.0932 3.92572 75.9446 4.07428 75.7218L5.63422 73.7161C5.78279 73.4933 6.1542 73.3447 6.45134 73.3447H40.3243C40.6215 73.3447 40.77 73.5676 40.6958 73.7904L40.1015 75.5732C40.0272 75.8703 39.7301 76.0189 39.4329 76.0189L4.29713 76.0932Z" fill="currentColor"/>
<path d="M22.0508 82.481C21.9023 82.7038 21.9766 82.9267 22.2737 82.9267L38.4674 83.001C38.6902 83.001 38.9874 82.7781 38.9874 82.481L39.1359 80.6982C39.1359 80.4011 38.9874 80.1782 38.6902 80.1782H23.8336C23.5365 80.1782 23.2394 80.4011 23.0908 80.6239L22.0508 82.481Z" fill="currentColor"/>
</svg>
