<svg width="160" height="160" viewBox="0 0 160 160" fill="none" xmlns="http://www.w3.org/2000/svg">
<path d="M4 56.6046L10.5344 50.0209L16.1035 50L10.3069 55.8371L39.1459 55.73L36.5995 53.2036L39.3841 53.1939L42.6761 56.4606L39.4085 59.7527L36.6235 59.7629L39.1512 57.2183L10.3122 57.325L16.1524 63.1185L10.5828 63.139L4 56.6046Z" fill="currentColor"/>
<path fill-rule="evenodd" clip-rule="evenodd" d="M20.9713 104.288C19.2381 103.436 17.73 102.187 16.5696 100.644L13.7126 103.675C15.3393 105.454 17.3271 106.866 19.5431 107.815C21.8588 108.742 24.3365 109.198 26.8307 109.155C29.9009 109.155 32.3884 108.689 34.2934 107.757C36.0325 106.954 37.5598 105.756 38.7534 104.258C39.8024 102.9 40.539 101.328 40.9105 99.6525C41.2656 98.1032 41.4514 96.5199 41.4646 94.9304V67.8783H37.6166V72.4258H37.5002C36.1704 70.5822 34.3674 69.1319 32.2816 68.228C31.4031 67.8502 30.4835 67.5762 29.5415 67.4117C28.6849 67.2616 27.8172 67.1836 26.9476 67.1784C25.0377 67.1568 23.1433 67.5239 21.3797 68.2574C19.7315 68.9474 18.243 69.9694 17.0069 71.2597C15.7706 72.5608 14.7914 74.084 14.121 75.749C13.4118 77.5087 13.0552 79.3907 13.0713 81.2879C13.0552 83.1907 13.4324 85.0763 14.1792 86.8264C14.881 88.484 15.9124 89.9815 17.2109 91.2281C18.5196 92.469 20.0533 93.4486 21.7295 94.114C23.4999 94.8213 25.3909 95.1777 27.2973 95.1633C29.2427 95.1709 31.1685 94.7738 32.9522 93.9972C34.8229 93.1485 36.404 91.7704 37.5002 90.0332H37.6166V94.9304C37.6256 96.3386 37.4392 97.7413 37.0629 99.0984C36.7177 100.354 36.1005 101.519 35.2551 102.51C34.3543 103.526 33.2256 104.315 31.9612 104.812C30.3804 105.414 28.6969 105.702 27.0058 105.657C24.9142 105.686 22.8458 105.216 20.9713 104.288ZM18.0566 85.2226C17.5272 83.9379 17.2595 82.5605 17.2691 81.171C17.2597 79.7815 17.5274 78.404 18.0566 77.119C18.5616 75.8864 19.2931 74.7592 20.2132 73.7959C21.1288 72.8422 22.217 72.0707 23.42 71.5223C24.6737 70.9528 26.0368 70.6643 27.4137 70.6771C28.895 70.6551 30.3645 70.943 31.7279 71.5223C32.9594 72.0505 34.0703 72.8241 34.9929 73.7959C35.8904 74.7546 36.5845 75.885 37.0336 77.119C37.506 78.4173 37.7429 79.7895 37.733 81.171C37.7924 82.6441 37.5442 84.1134 37.0042 85.4852C36.5033 86.7328 35.7374 87.8568 34.7596 88.7795C32.7684 90.6428 30.1407 91.6752 27.4137 91.6654C26.0367 91.6785 24.6736 91.39 23.42 90.8202C22.2166 90.2723 21.1283 89.5006 20.2132 88.5462C19.2926 87.5831 18.5611 86.4557 18.0566 85.2226Z" fill="currentColor"/>
<path fill-rule="evenodd" clip-rule="evenodd" d="M52.9496 95.1633H57.1469V75.9823H64.143L75.4537 95.1633H80.5843L68.6909 75.5739C72.111 75.2634 74.7249 74.1266 76.5327 72.1636C78.3454 70.1883 79.3176 67.5848 79.2435 64.9048C79.2429 61.2134 78.0283 58.4537 75.5995 56.6258C73.1701 54.799 69.8567 53.8856 65.6593 53.8856H52.9496V95.1633ZM64.6096 72.1343H57.1469V57.7336H64.6096C66.2111 57.7018 67.8095 57.8883 69.3606 58.2878C70.4986 58.5749 71.5622 59.1015 72.4803 59.8325C73.2251 60.4492 73.806 61.2404 74.1712 62.1358C74.522 63.0166 74.7 63.9567 74.6956 64.9048C74.7037 65.8723 74.5257 66.8323 74.1712 67.7325C73.8102 68.622 73.2282 69.4047 72.4803 70.0065C71.5534 70.7234 70.4931 71.2485 69.3611 71.5512C67.8133 71.9717 66.2132 72.1681 64.6096 72.1343Z" fill="currentColor"/>
<path fill-rule="evenodd" clip-rule="evenodd" d="M99.8235 53.8856H87.8128V95.1633H92.011V75.9823H99.8235C104.021 75.9823 107.334 75.0591 109.763 73.2128C112.193 71.3671 113.407 68.5978 113.407 64.9048C113.407 61.2134 112.192 58.4537 109.763 56.6258C107.334 54.799 104.021 53.8856 99.8235 53.8856ZM98.7738 72.1343H92.011V57.7336H98.7738C100.375 57.7018 101.974 57.8883 103.525 58.2878C104.663 58.575 105.726 59.1017 106.644 59.8325C107.389 60.4493 107.97 61.2405 108.335 62.1358C108.686 63.0166 108.864 63.9567 108.86 64.9048C108.868 65.8724 108.69 66.8324 108.335 67.7325C107.974 68.6219 107.392 69.4045 106.645 70.0065C105.718 70.7233 104.657 71.2484 103.525 71.5512C101.977 71.9717 100.377 72.168 98.7738 72.1343Z" fill="currentColor"/>
<path d="M152.964 91.6068C153.948 90.7265 154.819 89.7279 155.558 88.6338L152.119 86.1851C151.418 87.2998 150.565 88.3104 149.583 89.1875C148.709 89.9584 147.727 90.597 146.668 91.0828C145.663 91.5413 144.605 91.8742 143.519 92.0738C142.451 92.2679 141.368 92.3652 140.283 92.3645C137.834 92.4052 135.406 91.9076 133.171 90.9068C131.142 89.987 129.326 88.657 127.836 87.0006C126.362 85.3405 125.223 83.4103 124.483 81.3168C122.929 76.9221 122.929 72.1272 124.483 67.7325C125.223 65.6389 126.362 63.7086 127.836 62.0483C129.326 60.3923 131.142 59.0624 133.171 58.142C135.407 57.1418 137.834 56.6443 140.283 56.6844C141.388 56.6869 142.487 56.844 143.548 57.151C144.609 57.4515 145.634 57.8618 146.609 58.3753C147.522 58.8539 148.374 59.4413 149.145 60.1245C149.813 60.7053 150.401 61.3717 150.894 62.1065L154.567 59.3664C152.865 57.1294 150.588 55.3964 147.979 54.3522C145.533 53.3651 142.921 52.8507 140.283 52.8364C137.356 52.809 134.453 53.364 131.743 54.4691C129.184 55.5027 126.861 57.0425 124.912 58.9961C122.964 60.9496 121.43 63.2767 120.403 65.8376C118.226 71.4245 118.226 77.6248 120.403 83.2117C121.43 85.7726 122.964 88.0997 124.912 90.0533C126.861 92.0069 129.184 93.5468 131.742 94.5807C134.453 95.6855 137.356 96.2404 140.283 96.2129C141.924 96.221 143.559 96.0252 145.152 95.6299C146.636 95.2601 148.074 94.7222 149.437 94.0265C150.713 93.3774 151.899 92.5639 152.964 91.6068Z" fill="currentColor"/>
</svg>
