<svg width="160" height="160" viewBox="0 0 160 160" fill="none" xmlns="http://www.w3.org/2000/svg">
<path d="M128.097 119.288C125.028 116.799 126.222 111.303 123.036 108.592C126.122 89.8159 117.473 73.2665 107.162 62.6594C98.5077 53.7598 101.298 45.1001 101.298 37.6065C101.298 25.6325 96.3818 13 81.4896 13C65.5707 13 61.2073 26.2797 61.0511 33.857C60.6717 52.058 64.7281 56.7896 54.0765 70.0358C41.5444 85.6199 39.6975 101.165 42.5264 109.412C41.2041 110.952 39.4186 112.659 36.0819 114.071C26.8642 118.088 33.6212 124.812 31.0713 129.582C30.3459 130.938 30 132.356 30 133.711C30 137.896 33.3255 141.517 39.3683 140.976C47.5203 140.251 55.0417 146.026 59.9072 146.026C64.2036 146.026 67.73 143.582 69.3704 140.217C77.0537 138.326 86.5392 138.566 94.2169 140.547C95.5951 144.402 99.3335 146.913 103.49 146.913C112.591 146.913 114.343 136.596 124.783 133.103C128.543 131.848 130.435 128.199 130.435 124.801C130.435 122.625 129.659 120.555 128.097 119.288ZM77.0593 60.8962C75.2794 60.8962 73.8063 59.4567 71.4796 57.727C68.5335 55.5397 65.5372 54.2787 65.5707 51.9799C65.5707 50.4008 67.6854 49.9154 70.4194 48.1801C73.3544 46.322 74.4982 44.4361 77.3885 44.4361C80.3457 44.4361 81.2385 45.9315 85.2559 47.6667C89.2063 49.3797 91.9571 50.0493 91.9571 51.9799C91.9571 53.9607 87.8225 55.3779 85.4958 56.823C82.0754 58.9322 80.3178 60.8962 77.0593 60.8962ZM86.3495 31.798C91.2708 32.5848 91.8232 41.2333 89.4686 45.4907L87.4878 44.6816C88.5144 41.6518 88.4977 36.6636 85.0606 36.3455C82.8789 36.1446 81.4728 39.0238 81.1715 41.49C80.3178 41.1329 79.386 40.8762 78.2533 40.7814C78.5993 35.6313 81.9248 31.0894 86.3495 31.798ZM67.3617 33.6449C71.1336 32.7075 73.3599 37.0932 73.3767 41.6518L71.647 42.712C71.4126 40.7981 70.5589 37.707 68.4163 38.3654C66.123 39.0796 66.4969 44.4082 67.7746 45.5018L66.0672 46.4504C63.7238 42.5055 63.7294 34.5488 67.3617 33.6449ZM55.5607 141.015C44.6077 136.033 40.886 137.165 38.7936 137.165C34.4582 137.165 33.0409 133.935 34.6702 130.877C36.054 128.282 35.6243 125.565 35.284 123.383C34.7595 120.041 34.6646 118.953 37.9511 117.514C42.4986 115.583 44.5184 113.1 46.0249 111.242C50.2544 106.014 54.5228 114.238 58.0213 121.564C60.2923 126.313 64.7616 128.718 66.1398 133.979C67.4064 138.839 62.1782 144.028 55.5607 141.015ZM94.5461 130.559C86.8238 134.314 76.9867 136.038 69.6271 132.227C68.5391 129.086 66.7982 127.055 64.9234 125.013C67.9309 124.22 70.1628 120.471 67.4901 116.705C64.6388 112.682 58.8136 109.875 52.927 105.322C47.4199 101.065 45.679 90.5691 53.1781 78.8406C49.5234 89.23 51.6604 98.8048 53.4962 101.544C53.8756 96.0317 54.3108 86.8251 61.8434 75.7941C65.6432 70.2255 65.699 62.8715 65.7827 58.2738L69.2421 60.6396C71.7865 62.5199 73.9179 64.59 76.9756 64.59C81.4951 64.59 83.9949 61.9899 87.4766 59.8305C88.838 58.9936 90.897 58.1454 92.6267 56.9681C95.5281 70.7835 107.547 87.3999 108.222 96.8631C111.017 91.1048 107.43 77.2559 107.43 77.2559C112.128 84.4259 112.502 90.4017 112.708 97.7335C115.994 99.0782 119.521 102.582 119.844 107.197L118.477 107.04C117.774 101.913 103.931 94.3801 102.687 104.033C96.047 105.043 98.4631 115.561 97.1239 122.379C96.5102 125.498 95.3719 127.964 94.5461 130.559ZM121.585 130.33C116.089 132.45 112.379 136.953 109.829 139.749C104.919 145.139 98.424 142.555 97.7321 137.511C97.0012 132.121 99.7408 129.181 100.924 123.149C102.001 117.642 100.795 109.166 103.329 108.262C104.975 118.044 114.856 113.931 117.11 111.264C120.776 111.264 121.083 112.503 121.903 115.935C122.417 118.083 123.125 119.891 125.128 122.016C127.461 124.511 126.747 128.338 121.585 130.33ZM76.9477 57.7604C73.3153 57.7604 70.598 55.3444 68.3884 53.4696C67.2557 52.5155 68.6674 50.7523 69.8001 51.712C71.9594 53.5422 74.1355 55.4783 76.9477 55.4783C80.3346 55.4783 83.3197 52.5825 87.365 50.9867C88.7432 50.4454 89.5299 52.5769 88.1629 53.1181C84.2348 54.6637 81.0822 57.7604 76.9477 57.7604Z" fill="currentColor"/>
</svg>
