<svg width="160" height="160" viewBox="0 0 160 160" fill="none" xmlns="http://www.w3.org/2000/svg">
<path d="M130.83 90.7772C133.88 93.9751 136.752 97.025 139.713 100.055C139.956 100.242 140.127 100.507 140.197 100.806C140.267 101.104 140.232 101.418 140.098 101.694C131.294 123.981 115.343 138.144 91.7336 142.695C78.8841 145.116 65.601 143.537 53.6771 138.171C41.7532 132.805 31.7624 123.911 25.0532 112.687C18.3439 101.464 15.2392 88.4532 16.158 75.4099C17.0768 62.3666 21.9748 49.9192 30.1911 39.7475C38.4074 29.5757 49.5464 22.1693 62.1048 18.5279C74.6632 14.8865 88.0364 15.1853 100.42 19.3841C112.803 23.5828 123.6 31.4794 131.354 42.008C139.107 52.5366 143.444 65.1904 143.78 78.2617C143.921 83.9942 143.317 89.7208 141.983 95.2977L106.065 57.248C105.847 57.4858 105.642 57.7363 105.453 57.9981C100.419 65.5488 95.4153 73.1193 90.3518 80.6503C89.4289 82.1163 88.3319 83.4652 87.0847 84.6675C83.7486 87.6976 79.909 87.6285 76.7801 84.3417C72.5951 79.9988 68.5779 75.4585 64.4817 71.0564L60.6817 66.9405C54.5522 80.5319 48.5214 93.9257 42.4709 107.408C42.3308 107.33 42.2014 107.234 42.086 107.122C39.4729 103.797 37.4436 100.053 36.0848 96.0479C35.9118 95.5391 35.9118 94.9873 36.0848 94.4785C41.553 81.43 47.0474 68.3948 52.5682 55.3726C52.8701 54.5397 53.335 53.7754 53.9358 53.1243C54.5366 52.4732 55.2613 51.9485 56.0673 51.5809C56.8733 51.2133 57.7447 51.0101 58.6302 50.9832C59.5157 50.9564 60.3977 51.1064 61.2245 51.4245C62.5269 51.969 63.6906 52.7987 64.6298 53.8526C70.3743 59.7747 76.0596 65.8548 81.7547 71.8658C81.9127 72.0237 82.1002 72.1619 82.3667 72.379C83.2057 71.2439 83.9953 70.178 84.775 69.1021L99.2844 49.0655C99.8808 48.1615 100.673 47.403 101.602 46.8463C102.531 46.2896 103.573 45.949 104.652 45.8495C105.73 45.7499 106.817 45.8942 107.832 46.2715C108.848 46.6488 109.765 47.2495 110.517 48.0292C113.823 51.1186 116.962 54.4053 120.101 57.6823C123.24 60.9592 126.507 64.5914 129.685 68.0065C129.872 68.2039 129.942 68.5 130.277 68.5889C128.867 61.0883 125.637 54.0487 120.871 48.0884C113.052 37.8623 101.644 30.9838 88.9502 28.8414C75.8501 26.5205 62.359 29.3171 51.261 36.6541C40.163 43.991 32.305 55.3084 29.3089 68.2706C26.3127 81.2327 28.407 94.8505 35.1595 106.313C41.9119 117.776 52.8073 126.21 65.597 129.873C72.4184 131.95 79.6046 132.548 86.6753 131.625C93.746 130.703 100.538 128.282 106.598 124.523C119.44 116.835 127.346 105.425 130.83 90.7772Z" fill="currentColor"/>
</svg>
