<svg width="80" height="80" viewBox="0 0 80 80" fill="none" xmlns="http://www.w3.org/2000/svg">
<path d="M22.933 12.0986C22.9301 8.18161 26.1065 5.0029 30.0313 5C33.959 5.00579 37.1383 8.18451 37.1354 12.1014V19.1971H30.0342C26.1094 19.1942 22.9301 16.0155 22.933 12.0986Z" fill="currentColor"/>
<path d="M11.1007 23.9333H30.0313C33.9561 23.9362 37.1354 27.1149 37.1325 31.0348C37.1354 34.9517 33.9561 38.1304 30.0313 38.1333H11.0978C7.173 38.1275 3.99372 34.9488 3.99952 31.0319C3.99662 27.1149 7.1759 23.9362 11.1007 23.9333Z" fill="currentColor"/>
<path d="M67.899 23.9333C71.8238 23.9362 75.0031 27.1149 75.0002 31.0319C75.0031 34.9517 71.8238 38.1304 67.899 38.1333H60.7978V31.0319C60.7949 27.1149 63.9742 23.9362 67.899 23.9333Z" fill="currentColor"/>
<path d="M56.0666 12.0986V31.0319C56.0695 34.9517 52.8902 38.1304 48.9655 38.1333C45.0407 38.1275 41.8614 34.9488 41.8672 31.0319V12.0986C41.8643 8.18161 45.0436 5.0029 48.9684 5C52.8931 5.00579 56.0695 8.18451 56.0666 12.0986Z" fill="currentColor"/>
<path d="M48.9654 75.9995C52.8902 75.9966 56.0695 72.8179 56.0666 68.901C56.0695 64.984 52.8902 61.8053 48.9654 61.8024H41.8643V68.901C41.8614 72.815 45.0406 75.9937 48.9654 75.9995Z" fill="currentColor"/>
<path d="M48.9654 57.0633H67.899C71.8237 57.0604 75.003 53.8817 75.0001 49.9647C75.0059 46.0478 71.8266 42.8691 67.9019 42.8633H48.9683C45.0435 42.8662 41.8643 46.0449 41.8672 49.9618C41.8643 53.8817 45.0406 57.0604 48.9654 57.0633Z" fill="currentColor"/>
<path d="M11.1012 57.0638C7.17638 57.0609 3.9971 53.8822 4 49.9653C3.9971 46.0483 7.17638 42.8696 11.1012 42.8667H18.2023V49.9653C18.2052 53.8822 15.0259 57.0609 11.1012 57.0638Z" fill="currentColor"/>
<path d="M22.9335 68.8986V49.9653C22.9306 46.0483 26.107 42.8696 30.0347 42.8696C33.9595 42.8754 37.1388 46.0541 37.1329 49.971V68.9015C37.1358 72.8184 33.9566 75.9971 30.0318 76C26.107 75.9943 22.9277 72.8155 22.9335 68.8986Z" fill="currentColor"/>
</svg>
