<svg xmlns="http://www.w3.org/2000/svg" fill="none" viewBox="0 0 86 86">
  <path fill="curentColor" d="M65.3 53.7v-1.2A18.5 18.5 0 0 0 59 38.2a20.5 20.5 0 0 0-16-33 20 20 0 0 0-18.1 11.6 20.6 20.6 0 0 0 2.5 21.6A20 20 0 0 0 21 52.7v1.2a6.4 6.4 0 0 0-4.7 6.2c0 1.7.7 3.3 1.9 4.5A6.3 6.3 0 0 0 29 60.1a6.3 6.3 0 0 0-4.6-6.1v-1.2a16 16 0 0 1 10-14.8 1.7 1.7 0 0 0 1-2.3 1.7 1.7 0 0 0-2.3-1c-1 .5-2.1 1-3.1 1.7a17.2 17.2 0 0 1 1.4-23A16.9 16.9 0 0 1 60 25c.1 4.1-1.2 8.2-3.8 11.4a15.8 15.8 0 0 0-3.8-1.7 1.7 1.7 0 0 0-1.6 1 1.8 1.8 0 0 0 1 2.4 15.7 15.7 0 0 1 10 14.8V54a6.3 6.3 0 0 0-4.4 5 6.4 6.4 0 0 0 2.4 6.2 6.3 6.3 0 0 0 9.1-1.8c.7-1 1-2.1 1-3.3a6 6 0 0 0-4.5-6.5ZM25.5 60a3 3 0 0 1-1.8 2.7 2.9 2.9 0 0 1-3.2-.6 3 3 0 0 1 3.2-4.8 2.9 2.9 0 0 1 1.8 2.7Zm38.2 2.9a2.9 2.9 0 0 1-2.7-1.9 3 3 0 0 1 .7-3.2 3 3 0 0 1 5 2.1 3 3 0 0 1-.9 2.1 3 3 0 0 1-2 .9Z"/>
  <path fill="curentColor" d="M52.7 68V50.3a9.6 9.6 0 1 0-19.2 0v17.5a6.3 6.3 0 0 0-4.5 5 6.4 6.4 0 0 0 2.4 6.2 6.3 6.3 0 0 0 9.2-1.7 6.4 6.4 0 0 0-3.7-9.5V50.4c0-1.7.6-3.2 1.8-4.4A6.1 6.1 0 0 1 49 50.4v17.5a6.3 6.3 0 0 0-4.4 5A6.4 6.4 0 0 0 47 79a6.3 6.3 0 0 0 9.1-1.7c.6-1 1-2.2 1-3.4a6 6 0 0 0-4.5-6Zm-14.6 6a3 3 0 0 1-1.8 2.7 2.9 2.9 0 0 1-3.2-.6 3 3 0 0 1 2-5 3 3 0 0 1 2.1.8c.6.6.9 1.3 1 2.1Zm13 3a2.9 2.9 0 0 1-2.8-1.9A3 3 0 0 1 49 72a3 3 0 0 1 5 2.1c0 .8-.4 1.5-1 2a3 3 0 0 1-2 1ZM45.3 29.8a2 2 0 1 1-4.1 0 1.7 1.7 0 0 0-1.1-1.6l-.7-.1a2 2 0 0 0-1.9 1.7c0 1.5.6 3 1.7 4a5.5 5.5 0 0 0 9.5-4c0-.4-.2-.9-.5-1.2a1.7 1.7 0 0 0-3 1.2ZM35.6 19.8a4.4 4.4 0 0 0-4.4 4.2 2 2 0 0 0 1.6 1.8h.1a1.7 1.7 0 0 0 1.6-1l.1-.7a1 1 0 0 1 .6-.9h.4c.2 0 .4 0 .6.2l.2.6c0 .5.2 1 .6 1.2a1.7 1.7 0 0 0 2.4 0c.3-.4.5-.8.5-1.3a4.6 4.6 0 0 0-4.3-4ZM48.2 25.8a1.7 1.7 0 0 0 1.6-1V24a1 1 0 0 1 .7-.9h.3c.3 0 .5 0 .6.2l.3.6c0 .5.2 1 .5 1.2a1.7 1.7 0 0 0 2.5 0c.3-.4.5-.8.5-1.3 0-1-.5-2.1-1.3-3a4.3 4.3 0 0 0-6 0c-.8.8-1.3 1.9-1.3 3a1.6 1.6 0 0 0 .9 1.8l.7.1Z"/>
</svg>