<svg xmlns="http://www.w3.org/2000/svg" fill="none" viewBox="0 0 86 86">
  <style>
    path {
      fill: #046;
    }

    @media (prefers-color-scheme:dark) {
      path {
        fill: #80D5EB;
      }
    }

  </style>
  <path d="M85.8 99v-2.4a35.5 35.5 0 0 0-12.3-27.4A39.3 39.3 0 0 0 42.8 6 38.4 38.4 0 0 0 8 28.3a39.5 39.5 0 0 0 4.8 41.3A38.4 38.4 0 0 0 .7 97v2.3a12.2 12.2 0 0 0-8.9 11.9c0 3.2 1.3 6.4 3.6 8.6a12 12 0 0 0 20.6-8.6 12 12 0 0 0-8.6-11.7v-2.4A30.5 30.5 0 0 1 26.5 69a3.3 3.3 0 0 0 1.7-4.4 3.3 3.3 0 0 0-4.2-1.9c-2.1.9-4.1 1.9-6 3.1a32.9 32.9 0 0 1 2.7-44.1 32.3 32.3 0 0 1 54.6 22.3A33 33 0 0 1 68 65.7a30.3 30.3 0 0 0-7.3-3.2 3.3 3.3 0 0 0-3.2 2.1 3.4 3.4 0 0 0 2 4.4 30 30 0 0 1 19.1 28.3v2.4a12 12 0 0 0-8.4 9.6 12.3 12.3 0 0 0 4.7 11.9 12 12 0 0 0 17.5-3.4c1.1-2 1.8-4.2 1.8-6.4A11.6 11.6 0 0 0 85.8 99ZM9.3 110.8a5.7 5.7 0 0 1-3.4 5.3 5.5 5.5 0 0 1-6.1-1.3 5.7 5.7 0 0 1 6.1-9.2 5.5 5.5 0 0 1 3.4 5.2Zm73.4 5.5a5.6 5.6 0 0 1-5.2-3.5 5.7 5.7 0 0 1 1.2-6.1 5.6 5.6 0 0 1 9.6 4c0 1.5-.6 2.9-1.7 4-1 1-2.4 1.6-3.9 1.6Z"/>
  <path d="M61.6 126.2V92.6c0-5-2-9.7-5.4-13.2a18.3 18.3 0 0 0-31.5 13.2v33.6a12 12 0 0 0-8.6 9.5 12.3 12.3 0 0 0 4.6 12 12 12 0 0 0 17.6-3.4 12.3 12.3 0 0 0-.7-13.8 11.9 11.9 0 0 0-6.4-4.3V92.6a12 12 0 0 1 3.4-8.4 11.7 11.7 0 0 1 20.1 8.4v33.6a12 12 0 0 0-8.6 9.5 12.3 12.3 0 0 0 4.6 12 12 12 0 0 0 17.6-3.4c1.1-2 1.8-4.2 1.8-6.5a11.7 11.7 0 0 0-8.5-11.6Zm-28 11.6a5.7 5.7 0 0 1-3.5 5.3 5.5 5.5 0 0 1-6.1-1.2 5.7 5.7 0 0 1 4-9.7c1.4 0 2.8.6 3.9 1.7 1 1 1.6 2.5 1.7 4Zm24.7 5.7a5.6 5.6 0 0 1-5.2-3.5 5.7 5.7 0 0 1 1.2-6.2 5.6 5.6 0 0 1 9.6 4 6 6 0 0 1-1.7 4c-1 1-2.4 1.6-3.9 1.7ZM47.3 53.2c0 1-.4 2-1.2 2.8a4 4 0 0 1-6.8-2.8 3.3 3.3 0 0 0-2-3l-1.2-.3c-1 0-1.8.3-2.4 1-.7.5-1.1 1.4-1.2 2.3a10.6 10.6 0 1 0 21.3 0c0-1-.4-1.8-1-2.4a3.2 3.2 0 0 0-5.5 2.4ZM28.7 34c-2.2 0-4.3.7-6 2.2a8.4 8.4 0 0 0-2.5 5.8 3.7 3.7 0 0 0 3.2 3.5h.2a3.2 3.2 0 0 0 3-2c.2-.4.3-.9.3-1.3a2 2 0 0 1 1-1.7l.8-.1c.4 0 .8.2 1.1.5.3.3.5.7.5 1.1 0 1 .4 1.8 1 2.4a3.3 3.3 0 0 0 4.8-.1c.6-.7 1-1.6.9-2.5a8.8 8.8 0 0 0-8.3-7.8ZM52.9 45.5a3.2 3.2 0 0 0 3-2c.2-.4.2-.9.2-1.3a2 2 0 0 1 1.2-1.7l.6-.1c.5 0 .9.2 1.2.5.3.3.5.7.5 1.1 0 1 .4 1.8 1 2.4a3.3 3.3 0 0 0 4.7-.1c.7-.7 1-1.6 1-2.5 0-2-1-4-2.4-5.6a8.2 8.2 0 0 0-11.4-.2 8.4 8.4 0 0 0-2.7 5.8 3 3 0 0 0 1.7 3.5l1.4.2Z"/>
</svg>